<svg width="903" height="1008" viewBox="0 0 903 1008" fill="none" xmlns="http://www.w3.org/2000/svg">
<path d="M815.5 252.552C809.9 253.752 804.83 268.052 803 275.052L779 281.052C779.83 283.882 780.7 289.752 777.5 290.552C774.3 291.352 764.5 300.222 760 304.552L757 311.052H737L730 307.052V314.552C730 323.352 742.33 328.552 748.5 330.052V348.552L728 351.052C724 352.382 715.7 354.552 714.5 352.552C713.3 350.552 703.67 351.722 699 352.552L679.5 357.552C671 355.382 654.5 349.552 656.5 343.552C658.5 337.552 655.67 334.052 654 333.052L652 318.552C644.4 308.152 632.5 314.222 627.5 318.552C629.5 321.382 632.6 327.952 629 331.552C625.4 335.152 626.5 344.392 627.5 348.552C630.934 350.922 633.42 354.43 634.518 358.456C635.616 362.482 635.255 366.766 633.5 370.552C628.7 381.752 611.83 375.222 604 370.552H581L568 364.052H548.5C540.83 353.222 522.6 333.152 511 339.552C496.5 347.552 489 346.052 484.5 346.052C480.9 346.052 469.67 336.392 464.5 331.552H444.5L422 309.052C418 307.222 407.8 302.752 399 299.552C390.2 296.352 395.33 289.222 399 286.052C398.67 280.552 398.6 268.952 401 266.552C403.4 264.152 410.67 259.552 414 257.552C415.67 254.882 418.4 248.652 416 245.052C413.6 241.452 385.33 224.882 371.5 217.052L364.5 209.052H357.5L356.5 194.052C355.17 192.052 352.2 187.852 351 187.052C349.8 186.252 348.5 183.052 348 181.552L346 176.052L345 167.552L356.5 173.552C354.83 173.722 352.7 174.152 357.5 174.552C362.3 174.952 373.5 166.722 378.5 162.552L373.5 153.052L371.5 150.052L373.5 138.052L366.5 136.052H360L357.5 132.052V126.052L360 111.052L366.5 113.052H373.5C376.7 105.852 388.83 92.3816 394.5 86.5516V77.5516L401 68.5516C405 53.5516 376.5 43.0516 373.5 43.0516C370.5 43.0516 368.5 46.5516 362.5 48.5516C356.5 50.5516 351 42.0516 331 56.0516C315 67.2516 311.33 55.7216 311.5 48.5516H294.5C294.67 45.3816 293.7 37.9516 288.5 33.5516C282 28.0516 274 29.5516 266 17.0516C258 4.55156 239.5 1.55156 231.5 2.05156C225.1 2.45156 201.5 10.2216 190.5 14.0516L176 26.5516C164.4 34.1516 171.17 44.3816 176 48.5516H186.5C194.17 55.0516 209.9 68.1516 211.5 68.5516C213.5 69.0516 214.5 75.5516 214.5 77.5516C214.5 79.1516 199.83 91.2216 192.5 97.0516V142.052L231.5 167.552L246.5 170.552V177.552L235.5 181.552L221 192.052V214.052L200 249.552L190.5 252.052L180.5 255.552V266.552L166.5 288.552L158 293.052L126.5 328.552L103 331.552C101.4 320.752 97 317.052 95 316.552C81.5 315.552 56 341.552 54 355.052C52.4 365.852 70.67 372.222 80 374.052C80 383.052 69.5 382.552 69.5 391.052C69.5 397.852 83.83 402.892 91 404.552V417.052L97 427.052L101 444.552L91 448.552H86L80 445.552L76 448.552L72.5 453.052L65.5 455.052L61.5 448.552L54 445.552L48 450.552H33.5L32 445.552L27 444.552L24 448.552V457.552H17.5V455.052H5.5L3 462.052L9 472.552L33.5 495.052L48 500.552L56 497.552L65.5 495.052L72.5 497.552L69.5 505.052L58.5 512.052L46 515.552L42 512.052H33.5L27 515.552V527.052L65.5 566.552L86 576.552H99L131.5 561.552L136.5 555.052V535.552L139 529.052L142.5 527.052L145.5 535.552L147.5 547.552L145.5 555.052V561.552L151.5 573.552C154.67 575.052 159.1 580.252 151.5 589.052C143.9 597.852 144.33 619.052 145.5 628.552L161 691.552C162.5 701.722 165.6 724.052 166 732.052C166.4 740.052 188.83 779.052 200 797.552C200 816.752 211.33 849.552 217 863.552C245.5 884.552 240.5 902.052 243 904.052C245.5 906.052 256 929.552 256.5 941.552C257 953.552 269 980.552 271 984.052C273 987.552 293.5 1006.05 305.5 1005.55C315.1 1005.15 324.83 996.392 328.5 992.052C322.5 970.452 348.33 963.722 362 963.052C354.4 951.852 361.83 945.722 366.5 944.052C365.17 935.892 364.3 921.152 371.5 927.552C378.7 933.952 388.5 930.222 392.5 927.552L388.5 874.552C391.67 867.722 399 852.852 403 848.052C407 843.252 408 836.052 408 833.052C400.17 805.552 390.2 750.052 413 748.052C441.5 745.552 432 730.552 439 727.052C446 723.552 464.5 729.052 469 722.052C472.6 716.452 473.17 708.052 473 704.552L479 698.552C492 693.552 500.5 687.052 502 684.552C503.5 682.052 504 674.052 505.5 671.052C506.7 668.652 511 665.392 513 664.052C519 664.452 527.17 658.892 530.5 656.052L551.5 626.052L569 611.052C592.2 607.452 607.67 588.892 612.5 580.052L610.5 555.552L655.5 532.552C658.83 534.222 666.8 536.352 672 531.552C677.2 526.752 671.83 517.892 668.5 514.052V489.552L654 469.552C670.8 458.752 651.33 445.052 639.5 439.552C638 433.222 638.8 420.452 654 420.052C669.2 419.652 668 412.222 665.5 408.552C653.67 402.552 631.5 389.152 637.5 383.552C643.5 377.952 651 379.892 654 381.552C659.6 373.552 666 379.552 668.5 383.552H679.5C682.3 383.552 684 386.892 684.5 388.552V412.552C708.1 418.152 729.33 412.222 737 408.552H757C759.796 409.234 762.376 410.609 764.5 412.552C766.9 414.952 760.5 427.892 757 434.052C739.8 442.852 731.83 457.052 730 463.052C731.67 469.722 736.5 483.752 742.5 486.552C748.5 489.352 753 487.722 754.5 486.552C753 476.552 752.3 457.152 761.5 459.552C773 462.552 778.5 512.052 778.5 518.052C778.5 522.852 784.5 526.052 787.5 527.052C790.67 526.222 796.5 523.252 794.5 518.052C792 511.552 792 482.552 794.5 483.052C796.5 483.452 801 478.222 803 475.552V450.052H819C835 445.052 833.5 397.552 834 394.552C834.4 392.152 839.17 386.222 841.5 383.552L843.5 352.552C849.1 350.952 865.17 330.892 872.5 321.052C878.83 324.552 892.7 330.352 897.5 325.552C902.3 320.752 897.17 310.552 894 306.052C906.8 292.052 897.67 283.552 891.5 281.052H872.5C873.966 276.893 875.807 272.877 878 269.052C881.5 263.052 867 247.052 860.5 245.552C854 244.052 842.5 261.052 836.5 262.552C830.5 264.052 822.5 251.052 815.5 252.552Z" stroke="#8B88FF" stroke-width="4"/>
<path d="M201.453 508.726C197.126 507.231 193.704 505.206 191.187 502.649C188.67 500.092 187.411 497.182 187.411 493.917C187.411 492.029 187.903 490.338 188.886 488.843C189.909 487.348 191.266 486.188 192.957 485.362C194.688 484.497 196.615 484.064 198.739 484.064C200.548 484.064 202.122 484.359 203.459 484.949C204.836 485.539 206.016 486.306 206.999 487.25C207.943 488.115 208.71 489.138 209.3 490.318C209.89 491.459 210.185 492.658 210.185 493.917C210.185 495.215 209.89 496.415 209.3 497.516C208.71 498.617 207.904 499.679 206.881 500.702L202.22 497.28C203.046 496.611 203.793 495.844 204.462 494.979C205.17 494.074 205.524 493.111 205.524 492.088C205.524 490.947 205.091 490.062 204.226 489.433C203.361 488.804 202.299 488.489 201.04 488.489C199.624 488.489 198.326 488.784 197.146 489.374C195.966 489.964 195.022 490.81 194.314 491.911C193.606 492.973 193.252 494.251 193.252 495.746C193.252 497.044 193.586 498.322 194.255 499.581C194.924 500.8 195.986 501.921 197.441 502.944C198.936 504.006 200.883 504.95 203.282 505.776L201.453 508.726ZM191.364 488.017C190.066 487.073 188.984 486.011 188.119 484.831C187.254 483.612 186.821 482.314 186.821 480.937C186.821 478.813 187.686 477.2 189.417 476.099C191.148 474.998 193.37 474.447 196.084 474.447C197.185 474.447 198.188 474.486 199.093 474.565C199.998 474.604 200.922 474.683 201.866 474.801L200.745 475.804V468.606H206.881V479.226C206.134 479.147 205.209 479.088 204.108 479.049C203.007 478.97 201.905 478.931 200.804 478.931C197.697 478.931 195.474 479.285 194.137 479.993C192.839 480.701 192.19 481.665 192.19 482.884C192.19 483.513 192.347 484.084 192.662 484.595C193.016 485.067 193.468 485.48 194.019 485.834L191.364 488.017ZM183.045 470.317L180.213 465.892V465.125H212.309L215.082 469.609V470.317H183.045ZM222.714 493.445C221.77 493.445 220.826 493.209 219.882 492.737C218.938 492.265 218.072 491.636 217.286 490.849C216.538 490.062 215.929 489.197 215.457 488.253C215.024 487.27 214.808 486.286 214.808 485.303C214.808 484.359 215.044 483.671 215.516 483.238C216.027 482.766 216.715 482.451 217.581 482.294C218.485 482.137 219.528 482.058 220.708 482.058C222.674 482.058 224.7 482.156 226.785 482.353C228.869 482.51 230.797 482.707 232.567 482.943C234.337 483.179 235.694 483.395 236.638 483.592V487.84C235.969 487.801 235.045 487.781 233.865 487.781C232.685 487.742 231.426 487.722 230.089 487.722C228.751 487.683 227.512 487.663 226.372 487.663C226.096 487.663 225.801 487.663 225.487 487.663C225.172 487.663 224.916 487.663 224.72 487.663L225.487 486.66V489.728C225.487 490.908 225.27 491.832 224.838 492.501C224.405 493.13 223.697 493.445 222.714 493.445ZM219.174 484.3V468.311H225.487V484.3H219.174ZM241.063 502.413L235.576 498.755V468.252H241.83V502.413H241.063ZM211.681 470.317L208.849 465.892V465.125H246.55L249.382 469.609V470.317H211.681ZM280.734 508.726C276.407 507.231 272.985 505.206 270.468 502.649C267.951 500.092 266.692 497.182 266.692 493.917C266.692 492.029 267.184 490.338 268.167 488.843C269.19 487.348 270.547 486.188 272.238 485.362C273.969 484.497 275.896 484.064 278.02 484.064C279.829 484.064 281.403 484.359 282.74 484.949C284.117 485.539 285.297 486.306 286.28 487.25C287.224 488.115 287.991 489.138 288.581 490.318C289.171 491.459 289.466 492.658 289.466 493.917C289.466 495.215 289.171 496.415 288.581 497.516C287.991 498.617 287.185 499.679 286.162 500.702L281.501 497.28C282.327 496.611 283.074 495.844 283.743 494.979C284.451 494.074 284.805 493.111 284.805 492.088C284.805 490.947 284.372 490.062 283.507 489.433C282.642 488.804 281.58 488.489 280.321 488.489C278.905 488.489 277.607 488.784 276.427 489.374C275.247 489.964 274.303 490.81 273.595 491.911C272.887 492.973 272.533 494.251 272.533 495.746C272.533 497.044 272.867 498.322 273.536 499.581C274.205 500.8 275.267 501.921 276.722 502.944C278.217 504.006 280.164 504.95 282.563 505.776L280.734 508.726ZM270.645 488.017C269.347 487.073 268.265 486.011 267.4 484.831C266.535 483.612 266.102 482.314 266.102 480.937C266.102 478.813 266.967 477.2 268.698 476.099C270.429 474.998 272.651 474.447 275.365 474.447C276.466 474.447 277.469 474.486 278.374 474.565C279.279 474.604 280.203 474.683 281.147 474.801L280.026 475.804V468.606H286.162V479.226C285.415 479.147 284.49 479.088 283.389 479.049C282.288 478.97 281.186 478.931 280.085 478.931C276.978 478.931 274.755 479.285 273.418 479.993C272.12 480.701 271.471 481.665 271.471 482.884C271.471 483.513 271.628 484.084 271.943 484.595C272.297 485.067 272.749 485.48 273.3 485.834L270.645 488.017ZM262.326 470.317L259.494 465.892V465.125H291.59L294.363 469.609V470.317H262.326ZM281.467 465.715C280.129 464.102 278.831 462.903 277.573 462.116C276.314 461.29 274.859 460.877 273.207 460.877C272.499 460.877 271.791 460.956 271.083 461.113C270.335 461.27 269.608 461.487 268.9 461.762L267.13 456.924C267.759 456.688 268.428 456.491 269.136 456.334C269.844 456.177 270.63 456.098 271.496 456.098C272.951 456.098 274.288 456.373 275.508 456.924C276.688 457.475 277.809 458.242 278.871 459.225C279.933 460.169 280.936 461.31 281.88 462.647L282.116 462.588C281.25 460.464 280.385 458.733 279.52 457.396C278.615 456.019 277.651 454.997 276.629 454.328C275.567 453.659 274.347 453.325 272.971 453.325C272.302 453.325 271.653 453.384 271.024 453.502C270.394 453.62 269.765 453.797 269.136 454.033L267.248 449.254C267.877 449.018 268.605 448.821 269.431 448.664C270.257 448.467 271.122 448.369 272.027 448.369C273.6 448.369 275.016 448.644 276.275 449.195C277.494 449.746 278.635 450.69 279.697 452.027C280.719 453.325 281.742 455.095 282.765 457.337C283.787 459.579 284.849 462.372 285.951 465.715H281.467ZM288.134 458.458C285.695 458.458 284.476 457.18 284.476 454.623C284.476 453.404 284.79 452.479 285.42 451.85C286.049 451.181 286.954 450.847 288.134 450.847C289.314 450.847 290.199 451.181 290.789 451.85C291.418 452.479 291.733 453.404 291.733 454.623C291.733 457.18 290.533 458.458 288.134 458.458ZM318.358 493.445C317.414 493.445 316.47 493.209 315.526 492.737C314.582 492.265 313.717 491.636 312.93 490.849C312.183 490.062 311.573 489.197 311.101 488.253C310.668 487.27 310.452 486.286 310.452 485.303C310.452 484.359 310.688 483.671 311.16 483.238C311.671 482.766 312.36 482.451 313.225 482.294C314.13 482.137 315.172 482.058 316.352 482.058C318.319 482.058 320.344 482.156 322.429 482.353C324.514 482.51 326.441 482.707 328.211 482.943C329.981 483.179 331.338 483.395 332.282 483.592V487.84C331.613 487.801 330.689 487.781 329.509 487.781C328.329 487.742 327.07 487.722 325.733 487.722C324.396 487.683 323.157 487.663 322.016 487.663C321.741 487.663 321.446 487.663 321.131 487.663C320.816 487.663 320.561 487.663 320.364 487.663L321.131 486.66V489.728C321.131 490.908 320.915 491.832 320.482 492.501C320.049 493.13 319.341 493.445 318.358 493.445ZM314.818 484.3V468.311H321.131V484.3H314.818ZM336.707 502.413L331.22 498.755V468.252H337.474V502.413H336.707ZM307.325 470.317L304.493 465.892V465.125H342.194L345.026 469.609V470.317H307.325ZM333.454 465.715C332.785 464.26 332.136 463.001 331.507 461.939C330.877 460.838 330.248 459.894 329.619 459.107C328.714 457.927 327.77 457.101 326.787 456.629C325.803 456.118 324.643 455.862 323.306 455.862C322.598 455.862 321.831 455.96 321.005 456.157C320.139 456.354 319.333 456.629 318.586 456.983L315.341 450.611C316.167 450.257 317.052 449.982 317.996 449.785C318.9 449.588 319.903 449.49 321.005 449.49C322.539 449.49 323.994 449.785 325.371 450.375C326.708 450.926 328.026 451.83 329.324 453.089C330.582 454.308 331.841 455.96 333.1 458.045C334.358 460.09 335.637 462.647 336.935 465.715H333.454ZM376.948 466.069C375.336 463.67 373.526 461.624 371.52 459.933C369.554 458.202 367.43 456.885 365.148 455.98C362.867 455.036 360.468 454.564 357.95 454.564C355.354 454.564 353.329 455.154 351.873 456.334C350.418 457.475 349.69 459.068 349.69 461.113C349.69 461.939 349.828 462.745 350.103 463.532C350.379 464.279 350.733 464.987 351.165 465.656H348.156C347.094 464.594 346.19 463.394 345.442 462.057C344.734 460.68 344.38 459.264 344.38 457.809C344.38 455.252 345.364 453.168 347.33 451.555C349.336 449.903 352.031 449.077 355.413 449.077C358.599 449.077 361.746 449.785 364.853 451.201C368 452.578 370.93 454.544 373.644 457.101C376.358 459.658 378.699 462.647 380.665 466.069H376.948ZM351.932 502.413L346.445 498.755V468.488H352.699V502.413H351.932ZM341.607 470.317L338.775 465.833V465.125H357.419L360.251 469.668V470.317H341.607ZM375.403 501.823C373.043 501.823 370.801 501.351 368.677 500.407C366.593 499.463 364.646 498.185 362.836 496.572C361.066 494.959 359.493 493.15 358.116 491.144L360.83 489.138C362.482 491.498 364.39 493.366 366.553 494.743C368.756 496.08 371.018 496.749 373.338 496.749C374.912 496.749 376.328 496.533 377.586 496.1C378.884 495.667 379.907 495.077 380.654 494.33C381.441 493.543 381.834 492.658 381.834 491.675C381.834 490.77 381.539 490.082 380.949 489.61C380.359 489.138 379.612 488.902 378.707 488.902C377.763 488.902 376.701 489.118 375.521 489.551C374.381 489.984 373.043 490.692 371.509 491.675C370.015 490.849 368.618 489.885 367.32 488.784C366.062 487.683 365.039 486.483 364.252 485.185C363.505 483.887 363.131 482.53 363.131 481.114C363.131 479.029 363.938 477.417 365.55 476.276C367.163 475.096 369.366 474.506 372.158 474.506C372.984 474.506 373.81 474.526 374.636 474.565C375.462 474.604 376.387 474.703 377.409 474.86L375.757 475.863V468.429H381.834V479.226C381.087 479.147 380.32 479.088 379.533 479.049C378.786 479.01 378.019 478.99 377.232 478.99C374.086 478.99 371.726 479.403 370.152 480.229C368.618 481.016 367.851 482.058 367.851 483.356C367.851 483.946 367.989 484.457 368.264 484.89C368.579 485.323 368.953 485.696 369.385 486.011C370.605 485.224 371.824 484.634 373.043 484.241C374.263 483.848 375.423 483.651 376.524 483.651C377.822 483.651 379.081 483.907 380.3 484.418C381.52 484.929 382.601 485.736 383.545 486.837C384.332 487.742 384.942 488.705 385.374 489.728C385.807 490.711 386.023 491.773 386.023 492.914C386.023 494.605 385.591 496.12 384.725 497.457C383.899 498.794 382.68 499.856 381.067 500.643C379.494 501.43 377.606 501.823 375.403 501.823ZM356.818 470.317L353.986 465.892V465.125H388.737L391.51 469.609V470.317H356.818ZM403.149 495.628C401.34 495.628 399.688 495.294 398.193 494.625C396.738 493.956 395.42 493.071 394.24 491.97C393.021 490.869 392.038 489.649 391.29 488.312C390.543 486.935 390.169 485.48 390.169 483.946C390.169 482.215 390.622 480.701 391.526 479.403C392.431 478.105 393.65 477.082 395.184 476.335C396.718 475.588 398.351 475.214 400.081 475.214C402.166 475.214 403.956 475.568 405.45 476.276C406.984 476.945 408.282 477.731 409.344 478.636V482.117C408.322 481.448 407.279 480.957 406.217 480.642C405.195 480.288 403.995 480.111 402.618 480.111C401.124 480.111 399.786 480.386 398.606 480.937C397.466 481.488 396.581 482.235 395.951 483.179C395.322 484.084 395.007 485.067 395.007 486.129C395.007 487.034 395.224 487.86 395.656 488.607C396.089 489.315 396.718 489.885 397.544 490.318C398.37 490.751 399.354 490.967 400.494 490.967C402.186 490.967 403.798 490.475 405.332 489.492C406.866 488.509 408.44 487.171 410.052 485.48V492.619C409.305 493.445 408.341 494.153 407.161 494.743C405.981 495.333 404.644 495.628 403.149 495.628ZM404.978 491.852L396.305 479.934L398.842 478.4L407.515 490.259L404.978 491.852ZM413.946 502.413L408.459 498.755V468.252H414.713V502.413H413.946ZM388.104 470.317L385.272 465.892V465.125H419.433L422.265 469.609V470.317H388.104ZM410.661 465.715C409.992 464.26 409.343 463.001 408.714 461.939C408.085 460.838 407.455 459.894 406.826 459.107C405.921 457.927 404.977 457.101 403.994 456.629C403.011 456.118 401.85 455.862 400.513 455.862C399.805 455.862 399.038 455.96 398.212 456.157C397.347 456.354 396.54 456.629 395.793 456.983L392.548 450.611C393.374 450.257 394.259 449.982 395.203 449.785C396.108 449.588 397.111 449.49 398.212 449.49C399.746 449.49 401.201 449.785 402.578 450.375C403.915 450.926 405.233 451.83 406.531 453.089C407.79 454.308 409.048 455.96 410.307 458.045C411.566 460.09 412.844 462.647 414.142 465.715H410.661ZM449.454 484.536V471.379C449.454 470.553 449.238 469.904 448.805 469.432C448.412 468.921 447.802 468.665 446.976 468.665C446.032 468.665 445.265 468.94 444.675 469.491C444.085 470.042 443.79 470.789 443.79 471.733C443.79 472.638 444.066 473.503 444.616 474.329C445.206 475.155 446.052 475.863 447.153 476.453C448.255 477.004 449.553 477.397 451.047 477.633L452.05 480.17C451.814 480.17 451.578 480.17 451.342 480.17C451.146 480.17 450.929 480.17 450.693 480.17C449.081 480.17 447.488 479.954 445.914 479.521C444.38 479.088 442.984 478.459 441.725 477.633C440.467 476.807 439.464 475.804 438.716 474.624C437.969 473.444 437.595 472.146 437.595 470.73C437.595 468.96 438.244 467.485 439.542 466.305C440.84 465.125 442.551 464.535 444.675 464.535C446.209 464.535 447.625 464.85 448.923 465.479C450.261 466.069 451.401 466.895 452.345 467.957C453.329 469.019 454.076 470.238 454.587 471.615C455.138 472.992 455.413 474.388 455.413 475.804V484.536H449.454ZM452.64 493.799C451.736 493.799 450.811 493.563 449.867 493.091C448.963 492.58 448.117 491.931 447.33 491.144C446.583 490.357 445.973 489.512 445.501 488.607C445.029 487.663 444.793 486.739 444.793 485.834C444.793 484.379 445.324 483.454 446.386 483.061C447.488 482.628 448.923 482.412 450.693 482.412C452.581 482.412 454.568 482.51 456.652 482.707C458.737 482.864 460.664 483.061 462.434 483.297C464.244 483.533 465.601 483.749 466.505 483.946V488.135C465.719 488.096 464.755 488.076 463.614 488.076C462.513 488.037 461.333 488.017 460.074 488.017C458.816 488.017 457.557 488.017 456.298 488.017C456.062 488.017 455.787 488.017 455.472 488.017C455.158 488.017 454.882 488.017 454.646 488.017L455.413 487.191V490.318C455.413 491.419 455.197 492.285 454.764 492.914C454.332 493.504 453.624 493.799 452.64 493.799ZM470.281 502.413L464.735 498.755V468.252H470.989V502.413H470.281ZM460.31 470.317L457.537 465.892V465.125H475.768L478.6 469.609V470.317H460.31ZM485.489 502.413L480.002 498.755V468.252H486.256V502.413H485.489ZM475.164 470.317L472.332 465.892V465.125H490.976L493.808 469.609V470.317H475.164ZM508.783 503.003C506.738 501.469 504.81 499.817 503.001 498.047C501.231 496.277 499.658 494.507 498.281 492.737C496.904 490.928 495.823 489.217 495.036 487.604C494.249 485.952 493.856 484.516 493.856 483.297C493.856 482.196 494.171 481.37 494.8 480.819C495.429 480.229 496.334 479.934 497.514 479.934C498.497 479.934 499.54 480.131 500.641 480.524C501.782 480.917 502.903 481.507 504.004 482.294L501.585 482.117C502.254 481.409 502.726 480.544 503.001 479.521C503.316 478.459 503.473 477.299 503.473 476.04C503.473 474.821 503.355 473.562 503.119 472.264C502.922 470.966 502.588 469.747 502.116 468.606H507.544C508.055 470.14 508.468 471.713 508.783 473.326C509.137 474.939 509.314 476.551 509.314 478.164C509.314 480.76 508.645 482.923 507.308 484.654C506.01 486.385 504.043 487.447 501.408 487.84C500.975 487.919 500.562 487.997 500.169 488.076C499.776 488.115 499.382 488.155 498.989 488.194L498.104 486.188C499.205 487.84 500.582 489.433 502.234 490.967C503.886 492.462 505.656 493.838 507.544 495.097C509.432 496.356 511.281 497.477 513.09 498.46L508.783 503.003ZM490.375 470.317L487.543 465.892V465.125H514.506L517.338 469.609V470.317H490.375ZM528.277 502.885C526.783 501.784 525.347 500.604 523.97 499.345C522.594 498.086 521.374 496.769 520.312 495.392C519.29 494.015 518.464 492.58 517.834 491.085C517.205 489.59 516.89 488.017 516.89 486.365C516.89 484.359 517.402 482.628 518.424 481.173C519.486 479.678 520.922 478.538 522.731 477.751C524.541 476.925 526.606 476.512 528.926 476.512C530.382 476.512 531.837 476.61 533.292 476.807C534.787 476.964 536.065 477.141 537.127 477.338V482.294C536.262 482.215 535.279 482.137 534.177 482.058C533.115 481.94 531.994 481.881 530.814 481.881C528.454 481.881 526.625 482.491 525.327 483.71C524.029 484.929 523.38 486.562 523.38 488.607C523.38 490.023 523.675 491.4 524.265 492.737C524.895 494.074 525.74 495.372 526.802 496.631C527.864 497.89 529.143 499.109 530.637 500.289L528.277 502.885ZM542.024 502.413L536.419 498.755V468.252H542.732V502.413H542.024ZM513.94 470.317L511.108 465.892V465.125H547.511L550.343 469.609V470.317H513.94ZM574.117 489.138L571.462 459.874H580.43L577.834 489.138H574.117ZM576.005 502.472C574.785 502.472 573.743 502.138 572.878 501.469C572.012 500.8 571.58 499.64 571.58 497.988C571.58 496.297 572.012 495.136 572.878 494.507C573.743 493.878 574.785 493.563 576.005 493.563C577.185 493.563 578.207 493.878 579.073 494.507C579.977 495.136 580.43 496.297 580.43 497.988C580.43 499.679 579.977 500.859 579.073 501.528C578.207 502.157 577.185 502.472 576.005 502.472Z" fill="#D6D7FF"/>
</svg>
