<svg width="31" height="28" viewBox="0 0 31 28" fill="none" xmlns="http://www.w3.org/2000/svg">
<g clip-path="url(#clip0_48_2)">
<path d="M16.166 19.2871C16.3817 19.0577 16.6822 18.9284 16.9958 18.9284H25.1716C27.8935 18.9284 30.1 16.7218 30.1 14V5.82839C30.1 3.10657 27.8934 0.900024 25.1716 0.900024H5.82839C3.10646 0.900024 0.900024 3.10656 0.900024 5.82839V14C0.900024 16.7219 3.10656 18.9284 5.82839 18.9284H8.60441C9.23355 18.9284 9.74352 19.4384 9.74352 20.0675V26.1159L16.166 19.2871ZM16.166 19.2871C16.1659 19.2872 16.1661 19.287 16.166 19.2871Z" stroke="#8B88FF" stroke-width="1.8"/>
<path d="M19.3479 6.69292C18.4784 5.76903 17.0688 5.76903 16.1993 6.69292L15.7081 7.21481C15.591 7.33924 15.4011 7.33924 15.284 7.21481L14.8007 6.70126C13.9313 5.77736 12.5216 5.77736 11.6521 6.70126C10.7826 7.62516 10.7826 9.1231 11.6521 10.047L15.2843 13.9067C15.4014 14.0311 15.5913 14.0311 15.7084 13.9067L19.3479 10.0387C20.2174 9.11477 20.2174 7.61686 19.3479 6.69292Z" fill="#8B88FF"/>
</g>
<defs>
<clipPath id="clip0_48_2">
<rect width="31" height="28" fill="white"/>
</clipPath>
</defs>
</svg>
